<?xml version="1.0" standalone="no"?>
<svg width="50px" height="39px" viewBox="0 0 50 39" version="1.1" xmlns="http://www.w3.org/2000/svg" xmlns:xlink="http://www.w3.org/1999/xlink">

<g transform="translate(0.000000,1024.000000) scale(0.100000,-0.100000)"
fill="#000000" stroke="none">
<path d="M5012 7720 c-126 -27 -231 -113 -295 -242 -31 -63 -37 -85 -37 -139
0 -108 48 -157 124 -125 40 16 58 47 75 127 15 70 58 124 125 155 103 48 203
16 267 -84 33 -52 40 -133 15 -180 -20 -39 -74 -86 -126 -112 -117 -58 -140
-103 -140 -274 l0 -105 -57 -12 c-60 -12 -154 -54 -195 -86 -68 -54 -126 -122
-264 -313 -60 -82 -279 -301 -362 -360 -77 -55 -130 -86 -247 -144 -125 -61
-183 -86 -198 -86 -7 0 -17 -4 -22 -8 -6 -5 -59 -28 -120 -52 -60 -24 -114
-47 -120 -52 -5 -4 -15 -8 -22 -8 -8 0 -33 -9 -55 -20 -23 -11 -46 -20 -50
-20 -5 0 -28 -9 -50 -20 -56 -27 -70 -25 -108 10 -26 24 -41 30 -76 30 -36 0
-49 -5 -74 -32 -17 -18 -40 -53 -53 -77 -18 -37 -30 -46 -72 -61 -115 -39
-263 -132 -310 -195 -15 -18 -35 -57 -46 -85 -24 -63 -18 -109 19 -145 l26
-27 682 3 682 3 56 -29 c90 -45 113 -89 50 -97 -34 -4 -53 -31 -38 -55 22 -36
55 -44 150 -39 l90 6 70 -47 c134 -90 340 -173 521 -210 68 -14 134 -18 298
-18 194 1 219 3 330 29 239 55 433 148 652 312 50 38 124 87 164 108 l73 39
622 -2 c537 -2 626 0 651 12 86 45 62 193 -45 288 -56 49 -158 107 -263 149
-72 29 -77 33 -89 72 -18 63 -61 98 -119 98 -40 0 -52 -5 -77 -31 -19 -20 -36
-29 -49 -26 -19 5 -187 68 -230 86 -63 28 -104 44 -235 97 -177 70 -318 141
-436 219 -129 85 -316 276 -442 451 -151 209 -260 301 -403 337 l-54 14 -3 84
-2 84 57 18 c81 26 146 79 204 167 63 95 84 162 74 244 -19 168 -117 302 -261
356 -64 23 -171 33 -232 20z m141 -1518 c148 -136 306 -236 632 -397 149 -74
401 -189 560 -256 248 -104 534 -233 680 -308 l40 -20 -203 -1 c-181 0 -207 2
-247 20 -25 11 -65 29 -89 40 -100 44 -249 88 -381 112 -99 17 -333 14 -420
-7 -38 -9 -86 -20 -105 -24 -161 -37 -358 -143 -555 -300 -38 -31 -110 -83
-160 -117 -88 -60 -90 -62 -88 -99 4 -61 20 -66 158 -60 273 14 455 60 669
169 l126 65 80 -37 c44 -19 79 -40 77 -46 -7 -20 -174 -116 -278 -161 -253
-107 -480 -137 -725 -95 -135 23 -261 60 -373 111 l-66 30 75 33 c102 44 261
145 378 239 187 151 371 263 530 322 85 31 102 46 102 85 0 66 -101 79 -227
29 -13 -5 -33 -13 -45 -18 -13 -5 -53 -23 -90 -41 l-67 -33 -82 53 c-71 45
-138 80 -284 145 -102 46 -294 93 -430 106 -60 6 -111 11 -112 13 -1 1 42 19
95 40 134 54 351 163 462 232 81 49 209 146 274 206 11 10 24 18 28 18 5 0 33
-22 61 -48z m-644 -667 c117 -30 227 -75 349 -142 93 -50 108 -69 72 -92 -14
-9 -44 -31 -67 -48 -53 -40 -69 -41 -130 -5 -143 84 -421 172 -539 172 -69 0
-111 -83 -65 -129 10 -10 52 -26 92 -35 152 -34 413 -136 412 -161 -1 -14
-176 -107 -242 -128 l-54 -17 -41 34 c-76 62 -213 145 -289 176 -130 52 -205
60 -577 60 l-335 1 207 103 c228 113 321 152 454 191 165 48 223 55 444 51
184 -3 216 -6 309 -31z m1659 -324 c46 -12 95 -27 109 -34 25 -14 24 -14 -56
-47 -45 -18 -84 -36 -87 -41 -11 -19 -59 -7 -152 40 -53 26 -125 59 -160 72
-54 21 -59 25 -40 31 46 14 299 0 386 -21z m-652 -87 l39 -16 -30 -24 c-17
-13 -35 -24 -41 -24 -6 0 -26 -8 -45 -17 -29 -14 -209 -56 -216 -50 -3 3 239
147 247 147 4 0 25 -7 46 -16z"/>
<path d="M3443 4806 c-29 -6 -60 -19 -70 -29 -17 -17 -17 -19 1 -32 41 -31
221 -50 249 -26 24 20 26 49 5 76 -17 22 -27 25 -76 24 -31 -1 -81 -6 -109
-13z"/>
<path d="M6488 4809 c-21 -12 -24 -69 -6 -87 25 -25 231 -4 261 28 40 39 -195
94 -255 59z"/>
<path d="M2742 4778 c-23 -23 -7 -68 24 -68 14 0 44 27 44 40 0 13 -30 40 -44
40 -6 0 -17 -5 -24 -12z"/>
<path d="M7382 4768 c-16 -16 -15 -33 3 -48 17 -14 51 -5 59 17 13 33 -36 57
-62 31z"/>
<path d="M5910 4529 c-36 -15 -58 -38 -65 -68 -4 -19 37 -151 151 -476 86
-248 164 -478 175 -512 21 -68 65 -123 99 -123 32 0 76 29 90 59 6 14 22 57
35 96 13 38 45 129 70 200 25 72 53 150 62 175 8 25 32 90 53 145 20 55 41
114 44 130 4 17 30 83 57 147 27 65 49 129 49 144 0 15 -12 38 -30 56 -27 27
-36 30 -71 25 -22 -3 -50 -13 -61 -23 -29 -27 -74 -134 -145 -344 -14 -41 -43
-119 -64 -173 -22 -53 -39 -108 -39 -121 0 -13 -7 -29 -15 -36 -8 -7 -15 -20
-16 -29 0 -9 -28 65 -63 164 -111 317 -176 487 -196 521 -11 18 -35 37 -52 43
-36 13 -35 13 -68 0z"/>
<path d="M2560 4503 c-63 -52 -67 -23 70 -488 45 -154 95 -327 111 -385 17
-58 36 -128 44 -157 30 -103 109 -143 180 -89 28 22 39 46 89 203 32 98 67
203 78 233 54 148 66 181 71 186 2 3 39 -102 81 -233 104 -321 123 -369 153
-393 34 -27 96 -27 123 0 32 32 70 124 105 255 44 159 70 248 110 375 19 58
41 137 51 175 9 39 30 102 45 142 34 84 37 131 9 166 -28 36 -72 43 -117 20
-51 -27 -71 -57 -93 -143 -32 -128 -71 -263 -90 -311 -10 -25 -30 -94 -46
-154 l-28 -108 -12 39 c-20 65 -150 494 -173 569 -25 88 -54 118 -111 118 -65
0 -92 -34 -134 -168 -20 -62 -36 -118 -36 -126 0 -14 -20 -82 -72 -242 -15
-49 -28 -99 -28 -112 0 -13 -4 -27 -10 -30 -5 -3 -10 -15 -10 -26 0 -39 -17
-17 -29 38 -19 81 -159 568 -175 608 -15 36 -60 65 -100 65 -13 0 -39 -12 -56
-27z"/>
<path d="M7070 4504 c-46 -9 -86 -33 -98 -59 -19 -41 -17 -964 2 -1010 26 -62
52 -68 285 -63 229 5 250 10 277 66 13 28 14 42 5 72 -20 69 -35 74 -205 80
l-151 5 -3 83 -3 82 76 0 c111 0 155 28 155 99 0 17 -10 41 -22 56 -20 23 -35
28 -120 38 l-98 11 0 152 c0 116 3 154 14 163 9 7 60 10 152 9 153 -3 174 3
199 52 29 57 9 128 -42 148 -29 11 -379 24 -423 16z"/>
<path d="M4170 4471 l-35 -29 0 -506 0 -506 28 -27 27 -28 188 -3 c103 -2 207
0 231 3 96 14 134 108 72 177 l-29 33 -154 5 -153 5 -3 83 -3 82 85 0 c79 0
88 2 116 28 39 35 47 77 21 118 -21 34 -35 38 -153 50 l-68 7 0 163 0 164 155
0 c151 0 157 1 180 24 50 50 43 125 -14 163 -33 22 -42 23 -245 23 l-212 0
-34 -29z"/>
<path d="M5282 4328 c-22 -11 -82 -121 -82 -151 0 -16 -8 -37 -38 -107 -8 -19
-30 -75 -47 -125 -18 -49 -54 -146 -80 -215 -118 -314 -117 -309 -90 -359 17
-33 33 -41 84 -41 48 0 58 12 111 128 l43 93 134 -3 134 -3 33 -83 c43 -107
66 -132 120 -132 65 1 113 52 100 107 -4 16 -66 190 -139 388 -73 198 -140
384 -151 413 -28 80 -79 116 -132 90z m74 -515 c15 -45 26 -85 23 -88 -3 -3
-33 -2 -66 1 -60 7 -61 7 -53 33 29 91 53 151 60 144 4 -4 20 -45 36 -90z"/>
<path d="M4344 3079 c-17 -19 -19 -38 -19 -183 1 -188 6 -216 38 -216 44 0 47
14 47 205 0 164 -2 184 -18 198 -23 21 -25 21 -48 -4z"/>
<path d="M4985 3081 c-43 -25 -65 -63 -65 -109 0 -56 29 -88 97 -108 70 -20
109 -55 93 -84 -15 -27 -70 -26 -119 2 -33 19 -41 20 -55 9 -39 -33 -2 -93 69
-112 88 -25 185 41 185 126 0 66 -34 105 -111 124 -61 16 -85 41 -69 71 10 18
18 21 46 16 19 -3 50 -9 69 -12 27 -5 36 -2 41 11 10 24 -6 47 -47 67 -45 22
-97 22 -134 -1z"/>
<path d="M5440 3087 l-35 -12 0 -189 c0 -169 2 -190 18 -200 31 -20 52 4 55
66 l3 55 60 11 c76 14 124 49 138 99 34 121 -101 217 -239 170z m140 -97 c23
-23 26 -62 6 -79 -8 -7 -34 -11 -58 -9 l-43 3 -3 53 -3 52 40 0 c28 0 48 -7
61 -20z"/>
<path d="M3055 3067 c-16 -25 -13 -39 65 -262 41 -116 46 -125 74 -125 32 0
48 23 80 110 14 41 35 86 45 99 l19 25 17 -40 c9 -21 26 -64 36 -93 28 -81 45
-103 76 -99 23 3 30 13 53 83 15 44 44 123 64 175 20 52 37 97 37 100 8 41
-33 64 -61 34 -18 -20 -60 -117 -60 -140 0 -7 -10 -29 -21 -49 l-22 -37 -46
114 c-37 90 -50 114 -67 116 -22 3 -64 -42 -64 -68 0 -6 -9 -30 -20 -52 -11
-23 -20 -46 -20 -51 0 -5 -9 -20 -20 -34 -14 -18 -21 -21 -24 -12 -65 193 -82
229 -112 229 -8 0 -20 -10 -29 -23z"/>
<path d="M4066 3074 c-11 -11 -16 -35 -16 -84 0 -75 -4 -80 -68 -80 -78 0 -82
5 -82 80 0 74 -12 94 -52 88 -19 -2 -24 -11 -30 -53 -9 -69 -9 -318 0 -331 15
-22 42 -24 62 -4 15 15 20 34 20 75 l0 55 69 0 69 0 7 -58 c8 -73 15 -84 51
-80 l29 3 3 194 c2 149 -1 196 -10 203 -20 12 -35 10 -52 -8z"/>
<path d="M4620 3064 c-11 -28 -12 -315 -1 -354 8 -28 43 -39 67 -20 11 10 14
47 14 187 0 101 -4 182 -10 194 -16 29 -58 25 -70 -7z"/>
<path d="M5892 3078 c-19 -19 -17 -372 2 -387 9 -8 50 -11 117 -9 100 3 104 4
107 26 6 38 -15 52 -73 52 -74 0 -85 6 -85 46 l0 34 54 0 c67 0 86 7 86 30 0
41 -11 50 -60 50 -69 0 -80 6 -80 46 l0 34 54 0 c75 0 106 13 106 44 0 15 -8
30 -19 36 -28 14 -194 13 -209 -2z"/>
<path d="M6364 3076 c-17 -13 -19 -29 -22 -148 -2 -73 1 -158 5 -188 l8 -55
115 0 c112 0 115 1 118 23 6 38 -15 52 -73 52 -74 0 -85 6 -85 46 l0 34 59 0
c66 0 87 15 77 55 -6 22 -12 25 -49 25 -73 0 -87 8 -87 46 l0 34 54 0 c78 0
106 13 106 49 0 37 -12 41 -119 41 -59 0 -93 -5 -107 -14z"/>
<path d="M6842 3078 c-13 -13 -18 -351 -6 -382 8 -21 60 -21 68 0 3 9 6 38 6
65 0 27 4 49 9 49 25 0 45 -17 81 -70 42 -62 67 -76 99 -54 23 17 20 30 -21
92 l-29 43 30 35 c36 40 46 72 38 119 -7 44 -34 80 -74 100 -38 19 -183 21
-201 3z m166 -84 c24 -17 30 -62 10 -82 -7 -7 -34 -12 -60 -12 l-48 0 0 48 c0
27 3 52 7 55 12 13 68 7 91 -9z"/>
<path d="M2564 2968 c-52 -13 -68 -41 -48 -81 14 -27 16 -27 117 -28 56 -1
109 0 117 1 46 6 58 71 19 101 -27 21 -132 24 -205 7z"/>
<path d="M7428 2967 c-33 -13 -52 -51 -38 -77 19 -35 45 -41 156 -34 96 6 107
9 121 30 20 31 10 68 -22 82 -32 15 -180 14 -217 -1z"/>
<path d="M3937 2454 c-4 -4 -7 -28 -7 -53 0 -41 6 -54 50 -108 39 -48 50 -70
50 -97 0 -34 -2 -36 -35 -36 -34 0 -35 1 -35 40 0 29 -4 40 -16 40 -12 0 -14
-10 -12 -52 l3 -53 60 0 60 0 3 53 c3 51 1 56 -47 115 -38 46 -51 70 -51 94 0
31 2 33 35 33 33 0 35 -2 35 -35 0 -25 4 -35 16 -35 12 0 14 10 12 48 l-3 47
-55 3 c-31 2 -59 0 -63 -4z"/>
<path d="M4360 2295 c0 -140 2 -165 15 -165 13 0 15 25 15 165 0 140 -2 165
-15 165 -13 0 -15 -25 -15 -165z"/>
<path d="M4680 2295 c0 -140 2 -165 15 -165 12 0 15 18 16 103 l0 102 23 -83
c13 -45 25 -85 28 -88 3 -3 14 30 24 73 l19 78 5 -89 c3 -59 9 -91 18 -94 9
-3 12 34 12 163 0 198 -11 211 -51 59 l-26 -99 -12 45 c-7 25 -14 52 -16 60
-22 87 -27 100 -40 100 -13 0 -15 -27 -15 -165z"/>
<path d="M5562 2448 c-19 -19 -17 -291 2 -307 8 -7 37 -11 68 -9 l53 3 3 53
c2 42 0 52 -12 52 -12 0 -16 -11 -16 -40 0 -39 -1 -40 -35 -40 l-35 0 0 135 0
135 35 0 c33 0 35 -2 35 -35 0 -25 4 -35 16 -35 12 0 14 10 12 48 l-3 47 -55
3 c-34 2 -60 -2 -68 -10z"/>
<path d="M6157 2453 c-4 -3 -7 -30 -7 -60 0 -29 -4 -53 -10 -53 -5 0 -10 -7
-10 -15 0 -8 5 -15 10 -15 6 0 10 -37 10 -90 0 -73 3 -90 15 -90 12 0 15 17
15 90 0 83 1 90 20 90 11 0 20 5 20 11 0 6 -9 13 -20 16 -16 4 -20 14 -20 49
0 37 3 44 20 44 11 0 20 7 20 15 0 15 -50 22 -63 8z"/>
<path d="M4120 2370 c0 -20 -5 -30 -15 -30 -8 0 -15 -7 -15 -15 0 -8 7 -15 15
-15 12 0 15 -17 15 -90 l0 -90 30 0 c20 0 30 5 30 15 0 8 -9 15 -20 15 -18 0
-20 7 -20 75 0 68 2 75 20 75 11 0 20 7 20 15 0 8 -9 15 -20 15 -16 0 -20 7
-20 30 0 17 -4 30 -10 30 -5 0 -10 -13 -10 -30z"/>
<path d="M5220 2371 c0 -16 -6 -31 -15 -35 -19 -7 -20 -26 0 -26 11 0 15 -19
17 -87 3 -88 3 -88 31 -91 19 -2 27 1 27 12 0 9 -7 16 -15 16 -12 0 -15 15
-15 75 0 60 3 75 15 75 8 0 15 7 15 15 0 8 -7 15 -15 15 -10 0 -15 10 -15 30
0 20 -5 30 -15 30 -10 0 -15 -10 -15 -29z"/>
<path d="M6550 2370 c0 -16 -4 -30 -10 -30 -5 0 -10 -7 -10 -15 0 -8 5 -15 10
-15 6 0 10 -31 10 -74 0 -41 3 -81 6 -90 8 -21 64 -22 64 -1 0 8 -9 15 -20 15
-18 0 -20 7 -20 75 0 68 2 75 20 75 11 0 20 7 20 15 0 8 -9 15 -20 15 -16 0
-20 7 -20 30 0 20 -5 30 -15 30 -10 0 -15 -10 -15 -30z"/>
<path d="M4204 2323 c3 -10 15 -56 26 -102 19 -77 20 -99 4 -153 -4 -12 0 -18
10 -18 16 0 20 12 59 178 14 60 20 105 15 108 -14 9 -18 1 -36 -77 l-18 -74
-13 60 c-19 89 -21 95 -37 95 -10 0 -13 -6 -10 -17z"/>
<path d="M4444 2327 c-3 -8 -4 -54 -2 -103 l3 -89 50 0 c47 0 50 2 53 28 2 19
-1 27 -12 27 -9 0 -16 -7 -16 -15 0 -9 -9 -15 -25 -15 -22 0 -25 4 -25 35 0
34 1 35 40 35 l40 0 0 49 c0 54 -8 61 -66 61 -20 0 -37 -6 -40 -13z m76 -47
c0 -25 -4 -30 -25 -30 -21 0 -25 5 -25 30 0 25 4 30 25 30 21 0 25 -5 25 -30z"/>
<path d="M4902 2332 c-9 -6 -12 -34 -10 -103 l3 -94 49 -3 c51 -3 66 6 66 41
0 9 -7 17 -15 17 -8 0 -15 -7 -15 -15 0 -10 -10 -15 -30 -15 -28 0 -30 3 -30
34 0 34 1 35 43 38 41 3 42 4 45 41 2 21 -2 45 -9 53 -12 15 -76 19 -97 6z
m78 -52 c0 -27 -3 -30 -30 -30 -27 0 -30 3 -30 30 0 27 3 30 30 30 27 0 30 -3
30 -30z"/>
<path d="M5062 2332 c-9 -6 -12 -34 -10 -103 l3 -94 50 0 c47 0 50 2 53 28 2
15 -1 27 -7 27 -6 0 -11 -7 -11 -15 0 -10 -10 -15 -30 -15 -28 0 -30 3 -30 35
0 34 1 35 41 35 l40 0 -3 53 -3 52 -40 3 c-22 1 -46 -2 -53 -6z m76 -49 c-2
-22 -9 -29 -30 -31 -25 -3 -28 0 -28 27 0 28 3 31 31 31 27 0 30 -3 27 -27z"/>
<path d="M5320 2319 c-17 -31 -5 -61 40 -93 49 -36 54 -66 10 -66 -23 0 -30 4
-30 20 0 11 -7 20 -15 20 -9 0 -15 -9 -15 -22 0 -40 14 -49 66 -46 47 3 49 4
52 36 3 27 -3 38 -42 74 -54 48 -58 68 -16 68 23 0 30 -4 30 -20 0 -11 7 -20
15 -20 18 0 20 41 3 58 -7 7 -29 12 -50 12 -28 0 -40 -5 -48 -21z"/>
<path d="M5741 2326 c-8 -9 -11 -46 -9 -103 l3 -88 55 0 55 0 3 94 c2 69 -1
97 -10 103 -21 13 -85 9 -97 -6z m79 -91 l0 -75 -30 0 -30 0 0 75 0 75 30 0
30 0 0 -75z"/>
<path d="M5894 2331 c-2 -2 -4 -49 -4 -103 0 -80 3 -98 15 -98 12 0 15 17 15
90 l0 90 30 0 30 0 0 -90 c0 -73 3 -90 15 -90 12 0 15 17 15 90 l0 90 30 0 30
0 0 -90 c0 -74 3 -90 15 -90 13 0 15 16 13 103 l-3 102 -98 0 c-54 0 -101 -2
-103 -4z"/>
<path d="M6251 2326 c-8 -9 -11 -46 -9 -103 l3 -88 55 0 55 0 3 94 c2 69 -1
97 -10 103 -21 13 -85 9 -97 -6z m79 -91 l0 -75 -30 0 -30 0 0 75 0 75 30 0
30 0 0 -75z"/>
<path d="M6405 2331 c-3 -2 -5 -49 -5 -103 0 -80 3 -98 15 -98 12 0 15 17 15
90 0 89 0 90 25 90 18 0 25 -5 25 -20 0 -11 7 -20 16 -20 11 0 14 8 12 33 -3
31 -4 32 -51 32 -26 1 -50 -1 -52 -4z"/>
</g>
</svg>
